<mxfile host="Electron" modified="2024-04-03T17:01:08.799Z" agent="Mozilla/5.0 (X11; Linux x86_64) AppleWebKit/537.36 (KHTML, like Gecko) draw.io/24.1.0 Chrome/120.0.6099.109 Electron/28.1.0 Safari/537.36" etag="4TcUG9Kx0S9HtErUMJHu" version="24.1.0" type="device">
  <diagram name="Page-1" id="AeAQ8UteRTDMmOz89zi5">
    <mxGraphModel dx="2793" dy="1753" grid="1" gridSize="10" guides="1" tooltips="1" connect="1" arrows="1" fold="1" page="1" pageScale="1" pageWidth="850" pageHeight="1100" math="0" shadow="0">
      <root>
        <mxCell id="0" />
        <mxCell id="1" parent="0" />
        <mxCell id="lWOo_lwj3-n9xgsoMNME-1" value="" style="rounded=0;whiteSpace=wrap;html=1;fillColor=#f8cecc;strokeColor=#b85450;gradientColor=#ea6b66;" vertex="1" parent="1">
          <mxGeometry x="265" y="1261" width="350" height="80" as="geometry" />
        </mxCell>
        <mxCell id="W6_yoty5D15qkjbpSZdV-63" value="" style="rounded=0;whiteSpace=wrap;html=1;fillColor=#f8cecc;strokeColor=#b85450;gradientColor=#ea6b66;" parent="1" vertex="1">
          <mxGeometry x="265" y="764" width="350" height="80" as="geometry" />
        </mxCell>
        <mxCell id="W6_yoty5D15qkjbpSZdV-61" value="" style="rounded=0;whiteSpace=wrap;html=1;fillColor=#f8cecc;strokeColor=#b85450;gradientColor=#ea6b66;" parent="1" vertex="1">
          <mxGeometry x="250" y="560" width="350" height="80" as="geometry" />
        </mxCell>
        <mxCell id="W6_yoty5D15qkjbpSZdV-3" style="edgeStyle=orthogonalEdgeStyle;rounded=0;orthogonalLoop=1;jettySize=auto;html=1;entryX=0.5;entryY=0;entryDx=0;entryDy=0;" parent="1" source="W6_yoty5D15qkjbpSZdV-1" target="W6_yoty5D15qkjbpSZdV-2" edge="1">
          <mxGeometry relative="1" as="geometry" />
        </mxCell>
        <mxCell id="W6_yoty5D15qkjbpSZdV-1" value="Actor" style="shape=umlActor;verticalLabelPosition=bottom;verticalAlign=top;html=1;outlineConnect=0;" parent="1" vertex="1">
          <mxGeometry x="410" y="30" width="30" height="60" as="geometry" />
        </mxCell>
        <mxCell id="W6_yoty5D15qkjbpSZdV-5" style="edgeStyle=orthogonalEdgeStyle;rounded=0;orthogonalLoop=1;jettySize=auto;html=1;entryX=0.5;entryY=0;entryDx=0;entryDy=0;" parent="1" source="W6_yoty5D15qkjbpSZdV-2" target="W6_yoty5D15qkjbpSZdV-4" edge="1">
          <mxGeometry relative="1" as="geometry" />
        </mxCell>
        <mxCell id="W6_yoty5D15qkjbpSZdV-2" value="start job" style="rounded=1;whiteSpace=wrap;html=1;fillColor=#f8cecc;gradientColor=#ea6b66;strokeColor=#b85450;fontColor=#000000;" parent="1" vertex="1">
          <mxGeometry x="365" y="170" width="120" height="60" as="geometry" />
        </mxCell>
        <mxCell id="W6_yoty5D15qkjbpSZdV-4" value="step: indexer" style="rounded=0;whiteSpace=wrap;html=1;fillColor=#dae8fc;gradientColor=#7ea6e0;strokeColor=#6c8ebf;fontColor=#000000;" parent="1" vertex="1">
          <mxGeometry x="365" y="280" width="120" height="60" as="geometry" />
        </mxCell>
        <mxCell id="W6_yoty5D15qkjbpSZdV-12" style="edgeStyle=orthogonalEdgeStyle;rounded=0;orthogonalLoop=1;jettySize=auto;html=1;entryX=0.5;entryY=0;entryDx=0;entryDy=0;" parent="1" source="W6_yoty5D15qkjbpSZdV-6" target="W6_yoty5D15qkjbpSZdV-8" edge="1">
          <mxGeometry relative="1" as="geometry" />
        </mxCell>
        <mxCell id="W6_yoty5D15qkjbpSZdV-13" style="edgeStyle=orthogonalEdgeStyle;rounded=0;orthogonalLoop=1;jettySize=auto;html=1;" parent="1" source="W6_yoty5D15qkjbpSZdV-6" target="W6_yoty5D15qkjbpSZdV-11" edge="1">
          <mxGeometry relative="1" as="geometry" />
        </mxCell>
        <mxCell id="W6_yoty5D15qkjbpSZdV-14" style="edgeStyle=orthogonalEdgeStyle;rounded=0;orthogonalLoop=1;jettySize=auto;html=1;entryX=0.5;entryY=0;entryDx=0;entryDy=0;" parent="1" source="W6_yoty5D15qkjbpSZdV-6" target="W6_yoty5D15qkjbpSZdV-9" edge="1">
          <mxGeometry relative="1" as="geometry" />
        </mxCell>
        <mxCell id="W6_yoty5D15qkjbpSZdV-15" style="edgeStyle=orthogonalEdgeStyle;rounded=0;orthogonalLoop=1;jettySize=auto;html=1;entryX=0.5;entryY=0;entryDx=0;entryDy=0;" parent="1" source="W6_yoty5D15qkjbpSZdV-6" target="W6_yoty5D15qkjbpSZdV-10" edge="1">
          <mxGeometry relative="1" as="geometry" />
        </mxCell>
        <mxCell id="W6_yoty5D15qkjbpSZdV-6" value="step: meta info file extractor" style="rounded=0;whiteSpace=wrap;html=1;fillColor=#dae8fc;gradientColor=#7ea6e0;strokeColor=#6c8ebf;fontColor=#000000;" parent="1" vertex="1">
          <mxGeometry x="380" y="670" width="120" height="68" as="geometry" />
        </mxCell>
        <mxCell id="W6_yoty5D15qkjbpSZdV-21" style="edgeStyle=orthogonalEdgeStyle;rounded=0;orthogonalLoop=1;jettySize=auto;html=1;entryX=0.5;entryY=0;entryDx=0;entryDy=0;" parent="1" source="W6_yoty5D15qkjbpSZdV-8" target="W6_yoty5D15qkjbpSZdV-18" edge="1">
          <mxGeometry relative="1" as="geometry">
            <Array as="points">
              <mxPoint x="305" y="850" />
              <mxPoint x="440" y="850" />
            </Array>
          </mxGeometry>
        </mxCell>
        <mxCell id="W6_yoty5D15qkjbpSZdV-8" value="thread 1" style="rounded=0;whiteSpace=wrap;html=1;fillColor=#d5e8d4;gradientColor=#97d077;strokeColor=#82b366;fontColor=#000000;" parent="1" vertex="1">
          <mxGeometry x="270" y="770" width="70" height="68" as="geometry" />
        </mxCell>
        <mxCell id="W6_yoty5D15qkjbpSZdV-22" style="edgeStyle=orthogonalEdgeStyle;rounded=0;orthogonalLoop=1;jettySize=auto;html=1;entryX=0.5;entryY=0;entryDx=0;entryDy=0;" parent="1" source="W6_yoty5D15qkjbpSZdV-9" target="W6_yoty5D15qkjbpSZdV-18" edge="1">
          <mxGeometry relative="1" as="geometry">
            <Array as="points">
              <mxPoint x="395" y="850" />
              <mxPoint x="440" y="850" />
            </Array>
          </mxGeometry>
        </mxCell>
        <mxCell id="W6_yoty5D15qkjbpSZdV-9" value="thread 2" style="rounded=0;whiteSpace=wrap;html=1;fillColor=#d5e8d4;gradientColor=#97d077;strokeColor=#82b366;fontColor=#000000;" parent="1" vertex="1">
          <mxGeometry x="360" y="770" width="70" height="68" as="geometry" />
        </mxCell>
        <mxCell id="W6_yoty5D15qkjbpSZdV-23" style="edgeStyle=orthogonalEdgeStyle;rounded=0;orthogonalLoop=1;jettySize=auto;html=1;entryX=0.5;entryY=0;entryDx=0;entryDy=0;" parent="1" source="W6_yoty5D15qkjbpSZdV-10" target="W6_yoty5D15qkjbpSZdV-18" edge="1">
          <mxGeometry relative="1" as="geometry">
            <Array as="points">
              <mxPoint x="485" y="850" />
              <mxPoint x="440" y="850" />
            </Array>
          </mxGeometry>
        </mxCell>
        <mxCell id="W6_yoty5D15qkjbpSZdV-10" value="thread 3" style="rounded=0;whiteSpace=wrap;html=1;fillColor=#d5e8d4;gradientColor=#97d077;strokeColor=#82b366;fontColor=#000000;" parent="1" vertex="1">
          <mxGeometry x="450" y="770" width="70" height="68" as="geometry" />
        </mxCell>
        <mxCell id="W6_yoty5D15qkjbpSZdV-24" style="edgeStyle=orthogonalEdgeStyle;rounded=0;orthogonalLoop=1;jettySize=auto;html=1;entryX=0.5;entryY=0;entryDx=0;entryDy=0;" parent="1" source="W6_yoty5D15qkjbpSZdV-11" target="W6_yoty5D15qkjbpSZdV-18" edge="1">
          <mxGeometry relative="1" as="geometry">
            <Array as="points">
              <mxPoint x="575" y="850" />
              <mxPoint x="440" y="850" />
            </Array>
          </mxGeometry>
        </mxCell>
        <mxCell id="W6_yoty5D15qkjbpSZdV-11" value="thread 4" style="rounded=0;whiteSpace=wrap;html=1;fillColor=#d5e8d4;gradientColor=#97d077;strokeColor=#82b366;fontColor=#000000;" parent="1" vertex="1">
          <mxGeometry x="540" y="770" width="70" height="68" as="geometry" />
        </mxCell>
        <mxCell id="W6_yoty5D15qkjbpSZdV-17" value="" style="edgeStyle=orthogonalEdgeStyle;rounded=0;orthogonalLoop=1;jettySize=auto;html=1;entryX=0.5;entryY=0;entryDx=0;entryDy=0;" parent="1" source="W6_yoty5D15qkjbpSZdV-4" target="W6_yoty5D15qkjbpSZdV-16" edge="1">
          <mxGeometry relative="1" as="geometry">
            <mxPoint x="425" y="350" as="sourcePoint" />
            <mxPoint x="425" y="460" as="targetPoint" />
          </mxGeometry>
        </mxCell>
        <mxCell id="W6_yoty5D15qkjbpSZdV-54" style="edgeStyle=orthogonalEdgeStyle;rounded=0;orthogonalLoop=1;jettySize=auto;html=1;" parent="1" source="W6_yoty5D15qkjbpSZdV-16" target="W6_yoty5D15qkjbpSZdV-49" edge="1">
          <mxGeometry relative="1" as="geometry" />
        </mxCell>
        <mxCell id="W6_yoty5D15qkjbpSZdV-16" value="thread 1" style="rounded=0;whiteSpace=wrap;html=1;fillColor=#d5e8d4;gradientColor=#97d077;strokeColor=#82b366;fontColor=#000000;" parent="1" vertex="1">
          <mxGeometry x="390" y="370" width="70" height="60" as="geometry" />
        </mxCell>
        <mxCell id="W6_yoty5D15qkjbpSZdV-18" value="step: web meta info retriever" style="rounded=0;whiteSpace=wrap;html=1;fillColor=#dae8fc;gradientColor=#7ea6e0;strokeColor=#6c8ebf;fontColor=#000000;" parent="1" vertex="1">
          <mxGeometry x="380" y="900" width="120" height="68" as="geometry" />
        </mxCell>
        <mxCell id="W6_yoty5D15qkjbpSZdV-19" value="" style="edgeStyle=orthogonalEdgeStyle;rounded=0;orthogonalLoop=1;jettySize=auto;html=1;entryX=0.5;entryY=0;entryDx=0;entryDy=0;" parent="1" source="W6_yoty5D15qkjbpSZdV-18" target="W6_yoty5D15qkjbpSZdV-20" edge="1">
          <mxGeometry relative="1" as="geometry">
            <mxPoint x="440" y="960" as="sourcePoint" />
            <mxPoint x="440" y="1070" as="targetPoint" />
          </mxGeometry>
        </mxCell>
        <mxCell id="W6_yoty5D15qkjbpSZdV-28" style="edgeStyle=orthogonalEdgeStyle;rounded=0;orthogonalLoop=1;jettySize=auto;html=1;entryX=0.5;entryY=0;entryDx=0;entryDy=0;" parent="1" source="W6_yoty5D15qkjbpSZdV-20" target="W6_yoty5D15qkjbpSZdV-25" edge="1">
          <mxGeometry relative="1" as="geometry" />
        </mxCell>
        <mxCell id="W6_yoty5D15qkjbpSZdV-20" value="thread 1" style="rounded=0;whiteSpace=wrap;html=1;fillColor=#d5e8d4;gradientColor=#97d077;strokeColor=#82b366;fontColor=#000000;" parent="1" vertex="1">
          <mxGeometry x="405" y="990" width="70" height="68" as="geometry" />
        </mxCell>
        <mxCell id="lWOo_lwj3-n9xgsoMNME-8" style="edgeStyle=orthogonalEdgeStyle;rounded=0;orthogonalLoop=1;jettySize=auto;html=1;entryX=0.5;entryY=0;entryDx=0;entryDy=0;" edge="1" parent="1" source="W6_yoty5D15qkjbpSZdV-25" target="lWOo_lwj3-n9xgsoMNME-2">
          <mxGeometry relative="1" as="geometry">
            <mxPoint x="305" y="1280" as="targetPoint" />
          </mxGeometry>
        </mxCell>
        <mxCell id="lWOo_lwj3-n9xgsoMNME-9" style="edgeStyle=orthogonalEdgeStyle;rounded=0;orthogonalLoop=1;jettySize=auto;html=1;" edge="1" parent="1" source="W6_yoty5D15qkjbpSZdV-25" target="lWOo_lwj3-n9xgsoMNME-3">
          <mxGeometry relative="1" as="geometry" />
        </mxCell>
        <mxCell id="lWOo_lwj3-n9xgsoMNME-10" style="edgeStyle=orthogonalEdgeStyle;rounded=0;orthogonalLoop=1;jettySize=auto;html=1;entryX=0.5;entryY=0;entryDx=0;entryDy=0;" edge="1" parent="1" source="W6_yoty5D15qkjbpSZdV-25" target="lWOo_lwj3-n9xgsoMNME-4">
          <mxGeometry relative="1" as="geometry" />
        </mxCell>
        <mxCell id="lWOo_lwj3-n9xgsoMNME-11" style="edgeStyle=orthogonalEdgeStyle;rounded=0;orthogonalLoop=1;jettySize=auto;html=1;" edge="1" parent="1" source="W6_yoty5D15qkjbpSZdV-25" target="lWOo_lwj3-n9xgsoMNME-5">
          <mxGeometry relative="1" as="geometry" />
        </mxCell>
        <mxCell id="W6_yoty5D15qkjbpSZdV-25" value="step: File System Item obsolete removal" style="rounded=0;whiteSpace=wrap;html=1;fillColor=#dae8fc;gradientColor=#7ea6e0;strokeColor=#6c8ebf;fontColor=#000000;" parent="1" vertex="1">
          <mxGeometry x="380" y="1080" width="120" height="68" as="geometry" />
        </mxCell>
        <mxCell id="pT-amFlwkqPHEuizpd7b-11" style="edgeStyle=orthogonalEdgeStyle;rounded=0;orthogonalLoop=1;jettySize=auto;html=1;entryX=0.5;entryY=0;entryDx=0;entryDy=0;" parent="1" source="W6_yoty5D15qkjbpSZdV-29" target="pT-amFlwkqPHEuizpd7b-10" edge="1">
          <mxGeometry relative="1" as="geometry" />
        </mxCell>
        <mxCell id="pT-amFlwkqPHEuizpd7b-12" style="edgeStyle=orthogonalEdgeStyle;rounded=0;orthogonalLoop=1;jettySize=auto;html=1;entryX=0.5;entryY=0;entryDx=0;entryDy=0;" parent="1" source="W6_yoty5D15qkjbpSZdV-29" target="pT-amFlwkqPHEuizpd7b-8" edge="1">
          <mxGeometry relative="1" as="geometry" />
        </mxCell>
        <mxCell id="pT-amFlwkqPHEuizpd7b-13" style="edgeStyle=orthogonalEdgeStyle;rounded=0;orthogonalLoop=1;jettySize=auto;html=1;entryX=0.5;entryY=0;entryDx=0;entryDy=0;" parent="1" source="W6_yoty5D15qkjbpSZdV-29" target="pT-amFlwkqPHEuizpd7b-9" edge="1">
          <mxGeometry relative="1" as="geometry" />
        </mxCell>
        <mxCell id="W6_yoty5D15qkjbpSZdV-29" value="step: File Meta Info obsolete removal" style="rounded=0;whiteSpace=wrap;html=1;fillColor=#dae8fc;gradientColor=#7ea6e0;strokeColor=#6c8ebf;fontColor=#000000;" parent="1" vertex="1">
          <mxGeometry x="380" y="1470" width="120" height="68" as="geometry" />
        </mxCell>
        <mxCell id="W6_yoty5D15qkjbpSZdV-30" value="" style="edgeStyle=orthogonalEdgeStyle;rounded=0;orthogonalLoop=1;jettySize=auto;html=1;entryX=0.5;entryY=0;entryDx=0;entryDy=0;" parent="1" source="W6_yoty5D15qkjbpSZdV-29" target="pT-amFlwkqPHEuizpd7b-7" edge="1">
          <mxGeometry relative="1" as="geometry">
            <mxPoint x="440" y="1530" as="sourcePoint" />
            <mxPoint x="440" y="1560" as="targetPoint" />
          </mxGeometry>
        </mxCell>
        <mxCell id="pT-amFlwkqPHEuizpd7b-23" style="edgeStyle=orthogonalEdgeStyle;rounded=0;orthogonalLoop=1;jettySize=auto;html=1;" parent="1" source="W6_yoty5D15qkjbpSZdV-33" target="pT-amFlwkqPHEuizpd7b-21" edge="1">
          <mxGeometry relative="1" as="geometry" />
        </mxCell>
        <mxCell id="pT-amFlwkqPHEuizpd7b-24" style="edgeStyle=orthogonalEdgeStyle;rounded=0;orthogonalLoop=1;jettySize=auto;html=1;entryX=0.5;entryY=0;entryDx=0;entryDy=0;" parent="1" source="W6_yoty5D15qkjbpSZdV-33" target="pT-amFlwkqPHEuizpd7b-22" edge="1">
          <mxGeometry relative="1" as="geometry" />
        </mxCell>
        <mxCell id="pT-amFlwkqPHEuizpd7b-25" style="edgeStyle=orthogonalEdgeStyle;rounded=0;orthogonalLoop=1;jettySize=auto;html=1;entryX=0.5;entryY=0;entryDx=0;entryDy=0;" parent="1" source="W6_yoty5D15qkjbpSZdV-33" target="pT-amFlwkqPHEuizpd7b-19" edge="1">
          <mxGeometry relative="1" as="geometry" />
        </mxCell>
        <mxCell id="W6_yoty5D15qkjbpSZdV-33" value="step: new File System Item status updater" style="rounded=0;whiteSpace=wrap;html=1;fillColor=#dae8fc;gradientColor=#7ea6e0;strokeColor=#6c8ebf;fontColor=#000000;" parent="1" vertex="1">
          <mxGeometry x="380" y="1772" width="120" height="68" as="geometry" />
        </mxCell>
        <mxCell id="W6_yoty5D15qkjbpSZdV-34" value="" style="edgeStyle=orthogonalEdgeStyle;rounded=0;orthogonalLoop=1;jettySize=auto;html=1;" parent="1" source="W6_yoty5D15qkjbpSZdV-33" target="pT-amFlwkqPHEuizpd7b-20" edge="1">
          <mxGeometry relative="1" as="geometry">
            <mxPoint x="440" y="1832" as="sourcePoint" />
            <mxPoint x="440" y="1862" as="targetPoint" />
          </mxGeometry>
        </mxCell>
        <mxCell id="W6_yoty5D15qkjbpSZdV-42" style="edgeStyle=orthogonalEdgeStyle;rounded=0;orthogonalLoop=1;jettySize=auto;html=1;entryX=1;entryY=0.5;entryDx=0;entryDy=0;" parent="1" source="W6_yoty5D15qkjbpSZdV-41" target="W6_yoty5D15qkjbpSZdV-18" edge="1">
          <mxGeometry relative="1" as="geometry" />
        </mxCell>
        <mxCell id="W6_yoty5D15qkjbpSZdV-41" value="should be mono-thread because Google Book API limits are 1 req. per second." style="shape=card;whiteSpace=wrap;html=1;fillColor=#f8cecc;gradientColor=#ea6b66;strokeColor=#b85450;fontColor=#000000;" parent="1" vertex="1">
          <mxGeometry x="605" y="865" width="120" height="138" as="geometry" />
        </mxCell>
        <mxCell id="W6_yoty5D15qkjbpSZdV-44" style="edgeStyle=orthogonalEdgeStyle;rounded=0;orthogonalLoop=1;jettySize=auto;html=1;entryX=1;entryY=0.5;entryDx=0;entryDy=0;" parent="1" source="W6_yoty5D15qkjbpSZdV-43" target="W6_yoty5D15qkjbpSZdV-4" edge="1">
          <mxGeometry relative="1" as="geometry" />
        </mxCell>
        <mxCell id="W6_yoty5D15qkjbpSZdV-43" value="should be mono-thread because file names should be inserted in a certain order" style="shape=card;whiteSpace=wrap;html=1;fillColor=#f8cecc;gradientColor=#ea6b66;strokeColor=#b85450;fontColor=#000000;" parent="1" vertex="1">
          <mxGeometry x="590" y="245" width="120" height="130" as="geometry" />
        </mxCell>
        <mxCell id="W6_yoty5D15qkjbpSZdV-45" style="edgeStyle=orthogonalEdgeStyle;rounded=0;orthogonalLoop=1;jettySize=auto;html=1;entryX=0.5;entryY=0;entryDx=0;entryDy=0;" parent="1" source="W6_yoty5D15qkjbpSZdV-49" target="W6_yoty5D15qkjbpSZdV-50" edge="1">
          <mxGeometry relative="1" as="geometry" />
        </mxCell>
        <mxCell id="W6_yoty5D15qkjbpSZdV-46" style="edgeStyle=orthogonalEdgeStyle;rounded=0;orthogonalLoop=1;jettySize=auto;html=1;" parent="1" source="W6_yoty5D15qkjbpSZdV-49" target="W6_yoty5D15qkjbpSZdV-53" edge="1">
          <mxGeometry relative="1" as="geometry" />
        </mxCell>
        <mxCell id="W6_yoty5D15qkjbpSZdV-47" style="edgeStyle=orthogonalEdgeStyle;rounded=0;orthogonalLoop=1;jettySize=auto;html=1;entryX=0.5;entryY=0;entryDx=0;entryDy=0;" parent="1" source="W6_yoty5D15qkjbpSZdV-49" target="W6_yoty5D15qkjbpSZdV-51" edge="1">
          <mxGeometry relative="1" as="geometry" />
        </mxCell>
        <mxCell id="W6_yoty5D15qkjbpSZdV-48" style="edgeStyle=orthogonalEdgeStyle;rounded=0;orthogonalLoop=1;jettySize=auto;html=1;entryX=0.5;entryY=0;entryDx=0;entryDy=0;" parent="1" source="W6_yoty5D15qkjbpSZdV-49" target="W6_yoty5D15qkjbpSZdV-52" edge="1">
          <mxGeometry relative="1" as="geometry" />
        </mxCell>
        <mxCell id="W6_yoty5D15qkjbpSZdV-49" value="step: file hash calculator" style="rounded=0;whiteSpace=wrap;html=1;fillColor=#dae8fc;gradientColor=#7ea6e0;strokeColor=#6c8ebf;fontColor=#000000;" parent="1" vertex="1">
          <mxGeometry x="365" y="470" width="120" height="60" as="geometry" />
        </mxCell>
        <mxCell id="W6_yoty5D15qkjbpSZdV-55" style="edgeStyle=orthogonalEdgeStyle;rounded=0;orthogonalLoop=1;jettySize=auto;html=1;entryX=0;entryY=0.25;entryDx=0;entryDy=0;" parent="1" source="W6_yoty5D15qkjbpSZdV-50" target="W6_yoty5D15qkjbpSZdV-6" edge="1">
          <mxGeometry relative="1" as="geometry">
            <Array as="points">
              <mxPoint x="290" y="687" />
            </Array>
          </mxGeometry>
        </mxCell>
        <mxCell id="W6_yoty5D15qkjbpSZdV-50" value="thread 1" style="rounded=0;whiteSpace=wrap;html=1;fillColor=#d5e8d4;gradientColor=#97d077;strokeColor=#82b366;fontColor=#000000;" parent="1" vertex="1">
          <mxGeometry x="255" y="570" width="70" height="60" as="geometry" />
        </mxCell>
        <mxCell id="W6_yoty5D15qkjbpSZdV-56" style="edgeStyle=orthogonalEdgeStyle;rounded=0;orthogonalLoop=1;jettySize=auto;html=1;entryX=0.5;entryY=0;entryDx=0;entryDy=0;" parent="1" source="W6_yoty5D15qkjbpSZdV-51" target="W6_yoty5D15qkjbpSZdV-6" edge="1">
          <mxGeometry relative="1" as="geometry" />
        </mxCell>
        <mxCell id="W6_yoty5D15qkjbpSZdV-51" value="thread 2" style="rounded=0;whiteSpace=wrap;html=1;fillColor=#d5e8d4;gradientColor=#97d077;strokeColor=#82b366;fontColor=#000000;" parent="1" vertex="1">
          <mxGeometry x="345" y="570" width="70" height="60" as="geometry" />
        </mxCell>
        <mxCell id="W6_yoty5D15qkjbpSZdV-57" style="edgeStyle=orthogonalEdgeStyle;rounded=0;orthogonalLoop=1;jettySize=auto;html=1;" parent="1" source="W6_yoty5D15qkjbpSZdV-52" edge="1">
          <mxGeometry relative="1" as="geometry">
            <mxPoint x="440" y="670" as="targetPoint" />
          </mxGeometry>
        </mxCell>
        <mxCell id="W6_yoty5D15qkjbpSZdV-52" value="thread 3" style="rounded=0;whiteSpace=wrap;html=1;fillColor=#d5e8d4;gradientColor=#97d077;strokeColor=#82b366;fontColor=#000000;" parent="1" vertex="1">
          <mxGeometry x="435" y="570" width="70" height="60" as="geometry" />
        </mxCell>
        <mxCell id="W6_yoty5D15qkjbpSZdV-58" style="edgeStyle=orthogonalEdgeStyle;rounded=0;orthogonalLoop=1;jettySize=auto;html=1;entryX=1;entryY=0.25;entryDx=0;entryDy=0;" parent="1" source="W6_yoty5D15qkjbpSZdV-53" target="W6_yoty5D15qkjbpSZdV-6" edge="1">
          <mxGeometry relative="1" as="geometry">
            <Array as="points">
              <mxPoint x="560" y="687" />
            </Array>
          </mxGeometry>
        </mxCell>
        <mxCell id="W6_yoty5D15qkjbpSZdV-53" value="thread 4" style="rounded=0;whiteSpace=wrap;html=1;fillColor=#d5e8d4;gradientColor=#97d077;strokeColor=#82b366;fontColor=#000000;" parent="1" vertex="1">
          <mxGeometry x="525" y="570" width="70" height="60" as="geometry" />
        </mxCell>
        <mxCell id="W6_yoty5D15qkjbpSZdV-62" style="edgeStyle=orthogonalEdgeStyle;rounded=0;orthogonalLoop=1;jettySize=auto;html=1;entryX=1;entryY=0.5;entryDx=0;entryDy=0;" parent="1" source="W6_yoty5D15qkjbpSZdV-59" target="W6_yoty5D15qkjbpSZdV-61" edge="1">
          <mxGeometry relative="1" as="geometry" />
        </mxCell>
        <mxCell id="W6_yoty5D15qkjbpSZdV-59" value="equals to number of cores&amp;nbsp;- 1" style="shape=card;whiteSpace=wrap;html=1;fillColor=#f8cecc;gradientColor=#ea6b66;strokeColor=#b85450;fontColor=#000000;" parent="1" vertex="1">
          <mxGeometry x="650" y="562.5" width="120" height="75" as="geometry" />
        </mxCell>
        <mxCell id="W6_yoty5D15qkjbpSZdV-64" style="edgeStyle=orthogonalEdgeStyle;rounded=0;orthogonalLoop=1;jettySize=auto;html=1;entryX=1;entryY=0.5;entryDx=0;entryDy=0;" parent="1" source="W6_yoty5D15qkjbpSZdV-65" target="W6_yoty5D15qkjbpSZdV-63" edge="1">
          <mxGeometry relative="1" as="geometry" />
        </mxCell>
        <mxCell id="W6_yoty5D15qkjbpSZdV-65" value="equals to number of cores&amp;nbsp;- 1" style="shape=card;whiteSpace=wrap;html=1;fillColor=#f8cecc;gradientColor=#ea6b66;strokeColor=#b85450;fontColor=#000000;" parent="1" vertex="1">
          <mxGeometry x="660" y="766.5" width="120" height="75" as="geometry" />
        </mxCell>
        <mxCell id="pT-amFlwkqPHEuizpd7b-6" value="" style="rounded=0;whiteSpace=wrap;html=1;fillColor=#f8cecc;strokeColor=#b85450;gradientColor=#ea6b66;" parent="1" vertex="1">
          <mxGeometry x="265" y="1610" width="350" height="80" as="geometry" />
        </mxCell>
        <mxCell id="pT-amFlwkqPHEuizpd7b-14" style="edgeStyle=orthogonalEdgeStyle;rounded=0;orthogonalLoop=1;jettySize=auto;html=1;entryX=0;entryY=0.25;entryDx=0;entryDy=0;" parent="1" source="pT-amFlwkqPHEuizpd7b-7" target="W6_yoty5D15qkjbpSZdV-33" edge="1">
          <mxGeometry relative="1" as="geometry">
            <Array as="points">
              <mxPoint x="305" y="1730" />
              <mxPoint x="360" y="1730" />
              <mxPoint x="360" y="1789" />
            </Array>
          </mxGeometry>
        </mxCell>
        <mxCell id="pT-amFlwkqPHEuizpd7b-7" value="thread 1" style="rounded=0;whiteSpace=wrap;html=1;fillColor=#d5e8d4;gradientColor=#97d077;strokeColor=#82b366;fontColor=#000000;" parent="1" vertex="1">
          <mxGeometry x="270" y="1616" width="70" height="68" as="geometry" />
        </mxCell>
        <mxCell id="pT-amFlwkqPHEuizpd7b-15" style="edgeStyle=orthogonalEdgeStyle;rounded=0;orthogonalLoop=1;jettySize=auto;html=1;entryX=0.5;entryY=0;entryDx=0;entryDy=0;" parent="1" source="pT-amFlwkqPHEuizpd7b-8" target="W6_yoty5D15qkjbpSZdV-33" edge="1">
          <mxGeometry relative="1" as="geometry" />
        </mxCell>
        <mxCell id="pT-amFlwkqPHEuizpd7b-8" value="thread 2" style="rounded=0;whiteSpace=wrap;html=1;fillColor=#d5e8d4;gradientColor=#97d077;strokeColor=#82b366;fontColor=#000000;" parent="1" vertex="1">
          <mxGeometry x="360" y="1616" width="70" height="68" as="geometry" />
        </mxCell>
        <mxCell id="pT-amFlwkqPHEuizpd7b-16" style="edgeStyle=orthogonalEdgeStyle;rounded=0;orthogonalLoop=1;jettySize=auto;html=1;" parent="1" source="pT-amFlwkqPHEuizpd7b-9" edge="1">
          <mxGeometry relative="1" as="geometry">
            <mxPoint x="440" y="1770" as="targetPoint" />
            <Array as="points">
              <mxPoint x="485" y="1727" />
              <mxPoint x="441" y="1727" />
            </Array>
          </mxGeometry>
        </mxCell>
        <mxCell id="pT-amFlwkqPHEuizpd7b-9" value="thread 3" style="rounded=0;whiteSpace=wrap;html=1;fillColor=#d5e8d4;gradientColor=#97d077;strokeColor=#82b366;fontColor=#000000;" parent="1" vertex="1">
          <mxGeometry x="450" y="1616" width="70" height="68" as="geometry" />
        </mxCell>
        <mxCell id="pT-amFlwkqPHEuizpd7b-17" style="edgeStyle=orthogonalEdgeStyle;rounded=0;orthogonalLoop=1;jettySize=auto;html=1;entryX=0.983;entryY=0.353;entryDx=0;entryDy=0;entryPerimeter=0;" parent="1" source="pT-amFlwkqPHEuizpd7b-10" target="W6_yoty5D15qkjbpSZdV-33" edge="1">
          <mxGeometry relative="1" as="geometry">
            <Array as="points">
              <mxPoint x="575" y="1730" />
              <mxPoint x="520" y="1730" />
              <mxPoint x="520" y="1796" />
            </Array>
          </mxGeometry>
        </mxCell>
        <mxCell id="pT-amFlwkqPHEuizpd7b-10" value="thread 4" style="rounded=0;whiteSpace=wrap;html=1;fillColor=#d5e8d4;gradientColor=#97d077;strokeColor=#82b366;fontColor=#000000;" parent="1" vertex="1">
          <mxGeometry x="540" y="1616" width="70" height="68" as="geometry" />
        </mxCell>
        <mxCell id="pT-amFlwkqPHEuizpd7b-18" value="" style="rounded=0;whiteSpace=wrap;html=1;fillColor=#f8cecc;strokeColor=#b85450;gradientColor=#ea6b66;" parent="1" vertex="1">
          <mxGeometry x="265" y="1910" width="350" height="80" as="geometry" />
        </mxCell>
        <mxCell id="pT-amFlwkqPHEuizpd7b-27" style="edgeStyle=orthogonalEdgeStyle;rounded=0;orthogonalLoop=1;jettySize=auto;html=1;entryX=0.5;entryY=0;entryDx=0;entryDy=0;" parent="1" source="pT-amFlwkqPHEuizpd7b-19" target="pT-amFlwkqPHEuizpd7b-26" edge="1">
          <mxGeometry relative="1" as="geometry">
            <Array as="points">
              <mxPoint x="305" y="2040" />
              <mxPoint x="440" y="2040" />
            </Array>
          </mxGeometry>
        </mxCell>
        <mxCell id="pT-amFlwkqPHEuizpd7b-19" value="thread 1" style="rounded=0;whiteSpace=wrap;html=1;fillColor=#d5e8d4;gradientColor=#97d077;strokeColor=#82b366;fontColor=#000000;" parent="1" vertex="1">
          <mxGeometry x="270" y="1916" width="70" height="68" as="geometry" />
        </mxCell>
        <mxCell id="pT-amFlwkqPHEuizpd7b-28" style="edgeStyle=orthogonalEdgeStyle;rounded=0;orthogonalLoop=1;jettySize=auto;html=1;" parent="1" source="pT-amFlwkqPHEuizpd7b-20" edge="1">
          <mxGeometry relative="1" as="geometry">
            <mxPoint x="440" y="2120" as="targetPoint" />
            <Array as="points">
              <mxPoint x="395" y="2040" />
              <mxPoint x="441" y="2040" />
            </Array>
          </mxGeometry>
        </mxCell>
        <mxCell id="pT-amFlwkqPHEuizpd7b-20" value="thread 2" style="rounded=0;whiteSpace=wrap;html=1;fillColor=#d5e8d4;gradientColor=#97d077;strokeColor=#82b366;fontColor=#000000;" parent="1" vertex="1">
          <mxGeometry x="360" y="1916" width="70" height="68" as="geometry" />
        </mxCell>
        <mxCell id="pT-amFlwkqPHEuizpd7b-29" style="edgeStyle=orthogonalEdgeStyle;rounded=0;orthogonalLoop=1;jettySize=auto;html=1;entryX=0.5;entryY=0;entryDx=0;entryDy=0;" parent="1" source="pT-amFlwkqPHEuizpd7b-21" target="pT-amFlwkqPHEuizpd7b-26" edge="1">
          <mxGeometry relative="1" as="geometry">
            <Array as="points">
              <mxPoint x="485" y="2040" />
              <mxPoint x="440" y="2040" />
            </Array>
          </mxGeometry>
        </mxCell>
        <mxCell id="pT-amFlwkqPHEuizpd7b-21" value="thread 3" style="rounded=0;whiteSpace=wrap;html=1;fillColor=#d5e8d4;gradientColor=#97d077;strokeColor=#82b366;fontColor=#000000;" parent="1" vertex="1">
          <mxGeometry x="450" y="1916" width="70" height="68" as="geometry" />
        </mxCell>
        <mxCell id="pT-amFlwkqPHEuizpd7b-30" style="edgeStyle=orthogonalEdgeStyle;rounded=0;orthogonalLoop=1;jettySize=auto;html=1;" parent="1" source="pT-amFlwkqPHEuizpd7b-22" edge="1">
          <mxGeometry relative="1" as="geometry">
            <mxPoint x="440" y="2120" as="targetPoint" />
            <Array as="points">
              <mxPoint x="575" y="2040" />
              <mxPoint x="441" y="2040" />
            </Array>
          </mxGeometry>
        </mxCell>
        <mxCell id="pT-amFlwkqPHEuizpd7b-22" value="thread 4" style="rounded=0;whiteSpace=wrap;html=1;fillColor=#d5e8d4;gradientColor=#97d077;strokeColor=#82b366;fontColor=#000000;" parent="1" vertex="1">
          <mxGeometry x="540" y="1916" width="70" height="68" as="geometry" />
        </mxCell>
        <mxCell id="pT-amFlwkqPHEuizpd7b-26" value="end job" style="rounded=1;whiteSpace=wrap;html=1;fillColor=#f8cecc;gradientColor=#ea6b66;strokeColor=#b85450;fontColor=#000000;" parent="1" vertex="1">
          <mxGeometry x="380" y="2120" width="120" height="60" as="geometry" />
        </mxCell>
        <mxCell id="pT-amFlwkqPHEuizpd7b-31" value="equals to number of cores&amp;nbsp;- 1" style="shape=card;whiteSpace=wrap;html=1;fillColor=#f8cecc;gradientColor=#ea6b66;strokeColor=#b85450;fontColor=#000000;" parent="1" vertex="1">
          <mxGeometry x="670" y="1609" width="120" height="75" as="geometry" />
        </mxCell>
        <mxCell id="pT-amFlwkqPHEuizpd7b-32" value="equals to number of cores&amp;nbsp;- 1" style="shape=card;whiteSpace=wrap;html=1;fillColor=#f8cecc;gradientColor=#ea6b66;strokeColor=#b85450;fontColor=#000000;" parent="1" vertex="1">
          <mxGeometry x="670" y="1912.5" width="120" height="75" as="geometry" />
        </mxCell>
        <mxCell id="pT-amFlwkqPHEuizpd7b-33" style="edgeStyle=orthogonalEdgeStyle;rounded=0;orthogonalLoop=1;jettySize=auto;html=1;entryX=1;entryY=0.446;entryDx=0;entryDy=0;entryPerimeter=0;" parent="1" source="pT-amFlwkqPHEuizpd7b-31" target="pT-amFlwkqPHEuizpd7b-6" edge="1">
          <mxGeometry relative="1" as="geometry" />
        </mxCell>
        <mxCell id="pT-amFlwkqPHEuizpd7b-34" style="edgeStyle=orthogonalEdgeStyle;rounded=0;orthogonalLoop=1;jettySize=auto;html=1;entryX=1;entryY=0.5;entryDx=0;entryDy=0;" parent="1" source="pT-amFlwkqPHEuizpd7b-32" target="pT-amFlwkqPHEuizpd7b-18" edge="1">
          <mxGeometry relative="1" as="geometry">
            <mxPoint x="620" y="1949" as="targetPoint" />
          </mxGeometry>
        </mxCell>
        <mxCell id="cFf2lf7DGppdIoSNQJBt-2" style="edgeStyle=orthogonalEdgeStyle;rounded=0;orthogonalLoop=1;jettySize=auto;html=1;entryX=0;entryY=0.5;entryDx=0;entryDy=0;" parent="1" source="cFf2lf7DGppdIoSNQJBt-1" target="W6_yoty5D15qkjbpSZdV-4" edge="1">
          <mxGeometry relative="1" as="geometry" />
        </mxCell>
        <mxCell id="cFf2lf7DGppdIoSNQJBt-1" value="retrieves all file names and directories from the root directory, recursively" style="shape=card;whiteSpace=wrap;html=1;fillColor=#fff2cc;strokeColor=#d6b656;gradientColor=#ffd966;fontColor=#000000;" parent="1" vertex="1">
          <mxGeometry x="90" y="230" width="140" height="160" as="geometry" />
        </mxCell>
        <mxCell id="cFf2lf7DGppdIoSNQJBt-4" style="edgeStyle=orthogonalEdgeStyle;rounded=0;orthogonalLoop=1;jettySize=auto;html=1;entryX=0;entryY=0.5;entryDx=0;entryDy=0;" parent="1" source="cFf2lf7DGppdIoSNQJBt-3" target="W6_yoty5D15qkjbpSZdV-49" edge="1">
          <mxGeometry relative="1" as="geometry" />
        </mxCell>
        <mxCell id="cFf2lf7DGppdIoSNQJBt-3" value="for each filename, calculates file hash and stores it on DB&amp;nbsp;" style="shape=card;whiteSpace=wrap;html=1;fillColor=#fff2cc;strokeColor=#d6b656;gradientColor=#ffd966;fontColor=#000000;" parent="1" vertex="1">
          <mxGeometry x="90" y="420" width="140" height="160" as="geometry" />
        </mxCell>
        <mxCell id="cFf2lf7DGppdIoSNQJBt-6" style="edgeStyle=orthogonalEdgeStyle;rounded=0;orthogonalLoop=1;jettySize=auto;html=1;entryX=0;entryY=0.5;entryDx=0;entryDy=0;" parent="1" source="cFf2lf7DGppdIoSNQJBt-5" target="W6_yoty5D15qkjbpSZdV-6" edge="1">
          <mxGeometry relative="1" as="geometry" />
        </mxCell>
        <mxCell id="cFf2lf7DGppdIoSNQJBt-5" value="extracts meta-information from epub and pdf files, like title, authors, tags etc." style="shape=card;whiteSpace=wrap;html=1;fillColor=#fff2cc;strokeColor=#d6b656;gradientColor=#ffd966;fontColor=#000000;" parent="1" vertex="1">
          <mxGeometry x="90" y="624" width="140" height="160" as="geometry" />
        </mxCell>
        <mxCell id="cFf2lf7DGppdIoSNQJBt-8" style="edgeStyle=orthogonalEdgeStyle;rounded=0;orthogonalLoop=1;jettySize=auto;html=1;entryX=0;entryY=0.5;entryDx=0;entryDy=0;" parent="1" source="cFf2lf7DGppdIoSNQJBt-7" target="W6_yoty5D15qkjbpSZdV-18" edge="1">
          <mxGeometry relative="1" as="geometry" />
        </mxCell>
        <mxCell id="cFf2lf7DGppdIoSNQJBt-7" value="retrieves book information from internet. Overrides the previous extracted data if necessary." style="shape=card;whiteSpace=wrap;html=1;fillColor=#fff2cc;strokeColor=#d6b656;gradientColor=#ffd966;fontColor=#000000;" parent="1" vertex="1">
          <mxGeometry x="90" y="854" width="140" height="160" as="geometry" />
        </mxCell>
        <mxCell id="cFf2lf7DGppdIoSNQJBt-10" style="edgeStyle=orthogonalEdgeStyle;rounded=0;orthogonalLoop=1;jettySize=auto;html=1;entryX=0;entryY=0.5;entryDx=0;entryDy=0;" parent="1" source="cFf2lf7DGppdIoSNQJBt-9" target="W6_yoty5D15qkjbpSZdV-25" edge="1">
          <mxGeometry relative="1" as="geometry" />
        </mxCell>
        <mxCell id="cFf2lf7DGppdIoSNQJBt-9" value="obsolete file system information are removed (ex. files that were deleted but already exists on db)" style="shape=card;whiteSpace=wrap;html=1;fillColor=#fff2cc;strokeColor=#d6b656;gradientColor=#ffd966;fontColor=#000000;" parent="1" vertex="1">
          <mxGeometry x="90" y="1034" width="140" height="160" as="geometry" />
        </mxCell>
        <mxCell id="cFf2lf7DGppdIoSNQJBt-12" style="edgeStyle=orthogonalEdgeStyle;rounded=0;orthogonalLoop=1;jettySize=auto;html=1;entryX=0;entryY=0.5;entryDx=0;entryDy=0;" parent="1" source="cFf2lf7DGppdIoSNQJBt-11" target="W6_yoty5D15qkjbpSZdV-29" edge="1">
          <mxGeometry relative="1" as="geometry" />
        </mxCell>
        <mxCell id="cFf2lf7DGppdIoSNQJBt-11" value="removes obsolete file metadata, in particular those records that are not more referenced by file system items" style="shape=card;whiteSpace=wrap;html=1;fillColor=#fff2cc;strokeColor=#d6b656;gradientColor=#ffd966;fontColor=#000000;" parent="1" vertex="1">
          <mxGeometry x="90" y="1424" width="140" height="160" as="geometry" />
        </mxCell>
        <mxCell id="cFf2lf7DGppdIoSNQJBt-14" style="edgeStyle=orthogonalEdgeStyle;rounded=0;orthogonalLoop=1;jettySize=auto;html=1;entryX=0;entryY=0.5;entryDx=0;entryDy=0;" parent="1" source="cFf2lf7DGppdIoSNQJBt-13" target="W6_yoty5D15qkjbpSZdV-33" edge="1">
          <mxGeometry relative="1" as="geometry" />
        </mxCell>
        <mxCell id="cFf2lf7DGppdIoSNQJBt-13" value="changes the step value from JUST_INSERTED to READY in order to make data available for the front-end" style="shape=card;whiteSpace=wrap;html=1;fillColor=#fff2cc;strokeColor=#d6b656;gradientColor=#ffd966;fontColor=#000000;" parent="1" vertex="1">
          <mxGeometry x="90" y="1726" width="140" height="160" as="geometry" />
        </mxCell>
        <mxCell id="lWOo_lwj3-n9xgsoMNME-12" style="edgeStyle=orthogonalEdgeStyle;rounded=0;orthogonalLoop=1;jettySize=auto;html=1;" edge="1" parent="1" source="lWOo_lwj3-n9xgsoMNME-2" target="W6_yoty5D15qkjbpSZdV-29">
          <mxGeometry relative="1" as="geometry">
            <Array as="points">
              <mxPoint x="305" y="1390" />
              <mxPoint x="440" y="1390" />
            </Array>
          </mxGeometry>
        </mxCell>
        <mxCell id="lWOo_lwj3-n9xgsoMNME-2" value="thread 1" style="rounded=0;whiteSpace=wrap;html=1;fillColor=#d5e8d4;gradientColor=#97d077;strokeColor=#82b366;fontColor=#000000;" vertex="1" parent="1">
          <mxGeometry x="270" y="1267" width="70" height="68" as="geometry" />
        </mxCell>
        <mxCell id="lWOo_lwj3-n9xgsoMNME-13" style="edgeStyle=orthogonalEdgeStyle;rounded=0;orthogonalLoop=1;jettySize=auto;html=1;" edge="1" parent="1" source="lWOo_lwj3-n9xgsoMNME-3">
          <mxGeometry relative="1" as="geometry">
            <mxPoint x="440" y="1470" as="targetPoint" />
            <Array as="points">
              <mxPoint x="390" y="1390" />
              <mxPoint x="440" y="1390" />
            </Array>
          </mxGeometry>
        </mxCell>
        <mxCell id="lWOo_lwj3-n9xgsoMNME-3" value="thread 2" style="rounded=0;whiteSpace=wrap;html=1;fillColor=#d5e8d4;gradientColor=#97d077;strokeColor=#82b366;fontColor=#000000;" vertex="1" parent="1">
          <mxGeometry x="360" y="1267" width="70" height="68" as="geometry" />
        </mxCell>
        <mxCell id="lWOo_lwj3-n9xgsoMNME-14" style="edgeStyle=orthogonalEdgeStyle;rounded=0;orthogonalLoop=1;jettySize=auto;html=1;" edge="1" parent="1" source="lWOo_lwj3-n9xgsoMNME-4">
          <mxGeometry relative="1" as="geometry">
            <mxPoint x="440" y="1470" as="targetPoint" />
            <Array as="points">
              <mxPoint x="485" y="1390" />
              <mxPoint x="440" y="1390" />
            </Array>
          </mxGeometry>
        </mxCell>
        <mxCell id="lWOo_lwj3-n9xgsoMNME-4" value="thread 3" style="rounded=0;whiteSpace=wrap;html=1;fillColor=#d5e8d4;gradientColor=#97d077;strokeColor=#82b366;fontColor=#000000;" vertex="1" parent="1">
          <mxGeometry x="450" y="1267" width="70" height="68" as="geometry" />
        </mxCell>
        <mxCell id="lWOo_lwj3-n9xgsoMNME-15" style="edgeStyle=orthogonalEdgeStyle;rounded=0;orthogonalLoop=1;jettySize=auto;html=1;" edge="1" parent="1" source="lWOo_lwj3-n9xgsoMNME-5">
          <mxGeometry relative="1" as="geometry">
            <mxPoint x="440" y="1470" as="targetPoint" />
            <Array as="points">
              <mxPoint x="575" y="1390" />
              <mxPoint x="440" y="1390" />
            </Array>
          </mxGeometry>
        </mxCell>
        <mxCell id="lWOo_lwj3-n9xgsoMNME-5" value="thread 4" style="rounded=0;whiteSpace=wrap;html=1;fillColor=#d5e8d4;gradientColor=#97d077;strokeColor=#82b366;fontColor=#000000;" vertex="1" parent="1">
          <mxGeometry x="540" y="1267" width="70" height="68" as="geometry" />
        </mxCell>
        <mxCell id="lWOo_lwj3-n9xgsoMNME-6" value="equals to number of cores - 1" style="shape=card;whiteSpace=wrap;html=1;fillColor=#f8cecc;gradientColor=#ea6b66;strokeColor=#b85450;fontColor=#000000;" vertex="1" parent="1">
          <mxGeometry x="670" y="1260" width="120" height="75" as="geometry" />
        </mxCell>
        <mxCell id="lWOo_lwj3-n9xgsoMNME-7" style="edgeStyle=orthogonalEdgeStyle;rounded=0;orthogonalLoop=1;jettySize=auto;html=1;entryX=1;entryY=0.446;entryDx=0;entryDy=0;entryPerimeter=0;" edge="1" parent="1" source="lWOo_lwj3-n9xgsoMNME-6" target="lWOo_lwj3-n9xgsoMNME-1">
          <mxGeometry relative="1" as="geometry" />
        </mxCell>
      </root>
    </mxGraphModel>
  </diagram>
</mxfile>
